<svg width="2694" height="337" viewBox="0 0 2694 337" fill="none" xmlns="http://www.w3.org/2000/svg">
<path d="M30.6301 220.432H21.2551V92.1119H30.6301V220.432ZM223.202 220.432H210.897L132.616 103.245V220.432H123.241V92.1119H136.132L213.827 209.065V92.1119H223.202V220.432ZM400.422 101.487H355.539V220.432H346.164V101.487H301.75V92.1119H400.422V101.487ZM572.721 220.432H480.025V92.1119H569.557V101.487H489.4V148.948H564.518V158.323H489.4V211.057H572.721V220.432ZM760.839 220.432H750.527L737.754 186.331C736.504 183.049 735.097 179.964 733.535 177.073C732.05 174.182 730.293 171.682 728.261 169.573C726.23 167.385 723.886 165.667 721.23 164.417C718.652 163.167 715.605 162.542 712.089 162.542H667.207V220.432H657.832V92.1119H715.605C720.996 92.1119 726.191 92.6198 731.191 93.6354C736.269 94.5729 740.761 96.2916 744.668 98.7916C748.652 101.292 751.816 104.768 754.16 109.221C756.504 113.596 757.675 119.221 757.675 126.096C757.675 130.393 757.129 134.417 756.035 138.167C755.019 141.839 753.418 145.159 751.23 148.128C749.121 151.018 746.386 153.518 743.027 155.628C739.746 157.659 735.879 159.143 731.425 160.081C733.847 161.956 735.839 163.753 737.402 165.471C738.964 167.19 740.293 169.026 741.386 170.979C742.558 172.932 743.574 175.081 744.433 177.424C745.371 179.768 746.425 182.464 747.597 185.51L760.839 220.432ZM667.207 153.167H711.738C718.066 153.167 723.496 152.698 728.027 151.76C732.558 150.823 736.269 149.299 739.16 147.19C742.129 145.003 744.316 142.19 745.722 138.753C747.129 135.315 747.832 131.096 747.832 126.096C747.832 117.268 745.019 110.979 739.394 107.229C733.847 103.401 725.527 101.487 714.433 101.487H667.207V153.167ZM859.193 220.432H849.818V92.1119H859.193V220.432ZM1007.12 89.7682C1015.87 89.7682 1023.95 91.3307 1031.37 94.4557C1038.8 97.5807 1045.16 102.034 1050.48 107.815C1055.87 113.596 1060.05 120.549 1063.01 128.674C1066.06 136.799 1067.58 145.862 1067.58 155.862C1067.58 165.784 1066.1 174.846 1063.13 183.049C1060.16 191.253 1055.98 198.323 1050.59 204.26C1045.28 210.12 1038.91 214.69 1031.49 217.971C1024.15 221.174 1016.02 222.776 1007.12 222.776C998.21 222.776 990.046 221.174 982.624 217.971C975.202 214.69 968.796 210.12 963.405 204.26C958.093 198.401 953.952 191.37 950.983 183.167C948.015 174.964 946.53 165.862 946.53 155.862C946.53 145.784 948.015 136.682 950.983 128.557C954.03 120.432 958.249 113.518 963.64 107.815C969.03 102.034 975.397 97.5807 982.741 94.4557C990.163 91.3307 998.288 89.7682 1007.12 89.7682ZM1007 213.401C1014.34 213.401 1021.1 212.151 1027.27 209.651C1033.52 207.073 1038.91 203.323 1043.44 198.401C1047.98 193.479 1051.49 187.464 1053.99 180.354C1056.49 173.167 1057.74 165.003 1057.74 155.862C1057.74 146.643 1056.45 138.518 1053.87 131.487C1051.37 124.456 1047.86 118.557 1043.33 113.792C1038.87 108.948 1033.56 105.315 1027.39 102.893C1021.3 100.393 1014.62 99.1432 1007.35 99.1432C999.929 99.1432 993.093 100.393 986.843 102.893C980.671 105.393 975.319 109.065 970.788 113.909C966.257 118.674 962.702 124.573 960.124 131.604C957.624 138.635 956.374 146.721 956.374 155.862C956.374 165.003 957.624 173.167 960.124 180.354C962.624 187.464 966.1 193.479 970.554 198.401C975.085 203.323 980.436 207.073 986.608 209.651C992.858 212.151 999.655 213.401 1007 213.401ZM1253.95 220.432H1243.63L1230.86 186.331C1229.61 183.049 1228.2 179.964 1226.64 177.073C1225.16 174.182 1223.4 171.682 1221.37 169.573C1219.34 167.385 1216.99 165.667 1214.34 164.417C1211.76 163.167 1208.71 162.542 1205.2 162.542H1160.31V220.432H1150.94V92.1119H1208.71C1214.1 92.1119 1219.3 92.6198 1224.3 93.6354C1229.38 94.5729 1233.87 96.2916 1237.77 98.7916C1241.76 101.292 1244.92 104.768 1247.27 109.221C1249.61 113.596 1250.78 119.221 1250.78 126.096C1250.78 130.393 1250.23 134.417 1249.14 138.167C1248.13 141.839 1246.52 145.159 1244.34 148.128C1242.23 151.018 1239.49 153.518 1236.13 155.628C1232.85 157.659 1228.98 159.143 1224.53 160.081C1226.95 161.956 1228.95 163.753 1230.51 165.471C1232.07 167.19 1233.4 169.026 1234.49 170.979C1235.66 172.932 1236.68 175.081 1237.54 177.424C1238.48 179.768 1239.53 182.464 1240.7 185.51L1253.95 220.432ZM1160.31 153.167H1204.84C1211.17 153.167 1216.6 152.698 1221.13 151.76C1225.66 150.823 1229.38 149.299 1232.27 147.19C1235.23 145.003 1237.42 142.19 1238.83 138.753C1240.23 135.315 1240.94 131.096 1240.94 126.096C1240.94 117.268 1238.13 110.979 1232.5 107.229C1226.95 103.401 1218.63 101.487 1207.54 101.487H1160.31V153.167ZM1584.13 101.487H1510.42V149.651H1574.52V159.026H1510.42V220.432H1501.04V92.1119H1584.13V101.487ZM1770.02 220.432H1758.77L1743.07 179.182H1679.9C1677.64 185.667 1675.18 192.542 1672.52 199.807C1669.86 206.995 1667.33 213.87 1664.9 220.432H1654.94C1659.16 209.339 1663.3 198.479 1667.36 187.854C1671.51 177.229 1675.61 166.682 1679.67 156.214C1683.73 145.667 1687.79 135.081 1691.86 124.456C1696 113.831 1700.18 103.01 1704.4 91.9948H1717.64L1770.02 220.432ZM1740.37 171.799L1710.61 100.432L1682.36 171.799H1740.37ZM1939.74 126.448C1938.88 122.62 1937.28 119.065 1934.94 115.784C1932.59 112.424 1929.66 109.534 1926.15 107.112C1922.63 104.612 1918.57 102.659 1913.96 101.253C1909.43 99.8463 1904.55 99.1432 1899.31 99.1432C1891.89 99.1432 1885.13 100.354 1879.04 102.776C1873.02 105.198 1867.87 108.792 1863.57 113.557C1859.35 118.245 1856.07 124.143 1853.73 131.253C1851.46 138.284 1850.33 146.487 1850.33 155.862C1850.33 165.237 1851.46 173.518 1853.73 180.706C1856.07 187.815 1859.35 193.792 1863.57 198.635C1867.87 203.479 1872.98 207.151 1878.92 209.651C1884.94 212.151 1891.62 213.401 1898.96 213.401C1910.05 213.401 1919.19 210.94 1926.38 206.018C1933.57 201.018 1938.02 193.753 1939.74 184.221H1949.47C1948.53 190.315 1946.62 195.784 1943.73 200.628C1940.83 205.393 1937.2 209.417 1932.83 212.698C1928.45 215.979 1923.41 218.479 1917.71 220.198C1912.01 221.917 1905.83 222.776 1899.19 222.776C1890.13 222.776 1881.97 221.214 1874.7 218.089C1867.51 214.885 1861.38 210.393 1856.3 204.612C1851.23 198.831 1847.32 191.839 1844.58 183.635C1841.85 175.354 1840.48 166.096 1840.48 155.862C1840.48 145.706 1841.85 136.565 1844.58 128.44C1847.32 120.315 1851.23 113.401 1856.3 107.698C1861.46 101.917 1867.63 97.5026 1874.82 94.4557C1882.08 91.3307 1890.21 89.7682 1899.19 89.7682C1905.37 89.7682 1911.23 90.6666 1916.77 92.4635C1922.4 94.2604 1927.44 96.7994 1931.89 100.081C1936.34 103.284 1940.09 107.151 1943.14 111.682C1946.19 116.135 1948.3 121.057 1949.47 126.448H1939.74ZM2122.7 101.487H2077.82V220.432H2068.45V101.487H2024.03V92.1119H2122.7V101.487ZM2256.45 89.7682C2265.2 89.7682 2273.28 91.3307 2280.71 94.4557C2288.13 97.5807 2294.49 102.034 2299.81 107.815C2305.2 113.596 2309.38 120.549 2312.35 128.674C2315.39 136.799 2316.92 145.862 2316.92 155.862C2316.92 165.784 2315.43 174.846 2312.46 183.049C2309.49 191.253 2305.31 198.323 2299.92 204.26C2294.61 210.12 2288.24 214.69 2280.82 217.971C2273.48 221.174 2265.35 222.776 2256.45 222.776C2247.54 222.776 2239.38 221.174 2231.96 217.971C2224.53 214.69 2218.13 210.12 2212.74 204.26C2207.42 198.401 2203.28 191.37 2200.31 183.167C2197.35 174.964 2195.86 165.862 2195.86 155.862C2195.86 145.784 2197.35 136.682 2200.31 128.557C2203.36 120.432 2207.58 113.518 2212.97 107.815C2218.36 102.034 2224.73 97.5807 2232.07 94.4557C2239.49 91.3307 2247.62 89.7682 2256.45 89.7682ZM2256.33 213.401C2263.67 213.401 2270.43 212.151 2276.6 209.651C2282.85 207.073 2288.24 203.323 2292.78 198.401C2297.31 193.479 2300.82 187.464 2303.32 180.354C2305.82 173.167 2307.07 165.003 2307.07 155.862C2307.07 146.643 2305.78 138.518 2303.21 131.487C2300.71 124.456 2297.19 118.557 2292.66 113.792C2288.21 108.948 2282.89 105.315 2276.72 102.893C2270.63 100.393 2263.95 99.1432 2256.68 99.1432C2249.26 99.1432 2242.42 100.393 2236.17 102.893C2230 105.393 2224.65 109.065 2220.12 113.909C2215.59 118.674 2212.03 124.573 2209.46 131.604C2206.96 138.635 2205.71 146.721 2205.71 155.862C2205.71 165.003 2206.96 173.167 2209.46 180.354C2211.96 187.464 2215.43 193.479 2219.88 198.401C2224.42 203.323 2229.77 207.073 2235.94 209.651C2242.19 212.151 2248.99 213.401 2256.33 213.401ZM2503.28 220.432H2492.96L2480.19 186.331C2478.94 183.049 2477.53 179.964 2475.97 177.073C2474.49 174.182 2472.73 171.682 2470.7 169.573C2468.67 167.385 2466.32 165.667 2463.67 164.417C2461.09 163.167 2458.04 162.542 2454.53 162.542H2409.64V220.432H2400.27V92.1119H2458.04C2463.43 92.1119 2468.63 92.6198 2473.63 93.6354C2478.71 94.5729 2483.2 96.2916 2487.11 98.7916C2491.09 101.292 2494.25 104.768 2496.6 109.221C2498.94 113.596 2500.11 119.221 2500.11 126.096C2500.11 130.393 2499.57 134.417 2498.47 138.167C2497.46 141.839 2495.86 145.159 2493.67 148.128C2491.56 151.018 2488.82 153.518 2485.46 155.628C2482.18 157.659 2478.32 159.143 2473.86 160.081C2476.28 161.956 2478.28 163.753 2479.84 165.471C2481.4 167.19 2482.73 169.026 2483.82 170.979C2485 172.932 2486.01 175.081 2486.87 177.424C2487.81 179.768 2488.86 182.464 2490.03 185.51L2503.28 220.432ZM2409.64 153.167H2454.18C2460.5 153.167 2465.93 152.698 2470.46 151.76C2475 150.823 2478.71 149.299 2481.6 147.19C2484.57 145.003 2486.75 142.19 2488.16 138.753C2489.57 135.315 2490.27 131.096 2490.27 126.096C2490.27 117.268 2487.46 110.979 2481.83 107.229C2476.28 103.401 2467.96 101.487 2456.87 101.487H2409.64V153.167ZM2687.29 92.1119L2637.14 165.354V220.432H2627.76V165.354L2577.14 92.1119H2588.15L2632.45 155.51L2676.4 92.1119H2687.29Z" fill="#111111"/>
<path d="M1178.15 29.4323H1176.04V4.01428L1165.65 29.4323H1163.44L1153.08 4.01428V29.4323H1150.97V0.560181H1154.03L1164.55 26.7955L1175.15 0.560181H1178.15V29.4323ZM1219.63 29.4323H1217.1L1213.56 20.151H1199.35C1198.84 21.61 1198.29 23.1569 1197.69 24.7916C1197.09 26.4088 1196.52 27.9557 1195.98 29.4323H1193.74C1194.69 26.9362 1195.62 24.4928 1196.53 22.1022C1197.46 19.7115 1198.39 17.3385 1199.3 14.983C1200.21 12.61 1201.13 10.2281 1202.04 7.83752C1202.97 5.4469 1203.91 3.01233 1204.86 0.533813H1207.84L1219.63 29.4323ZM1212.96 18.4899L1206.26 2.43225L1199.91 18.4899H1212.96ZM1258.79 14.7721C1258.79 24.5455 1253.93 29.4323 1244.21 29.4323H1235.48V0.586548H1244.21C1249.07 0.586548 1252.72 1.76428 1255.15 4.11975C1257.57 6.45764 1258.79 10.0084 1258.79 14.7721ZM1256.55 14.7721C1256.55 12.8737 1256.35 11.1774 1255.97 9.68323C1255.6 8.18909 1254.94 6.92346 1253.99 5.88635C1253.04 4.83167 1251.76 4.03186 1250.16 3.48694C1248.58 2.94202 1246.58 2.66956 1244.15 2.66956H1237.59V27.3229H1244.15C1246.56 27.3229 1248.56 27.0416 1250.14 26.4791C1251.74 25.9166 1253.01 25.0992 1253.96 24.027C1254.91 22.9371 1255.58 21.6188 1255.97 20.0719C1256.35 18.525 1256.55 16.7584 1256.55 14.7721ZM1297.31 29.4323H1276.45V0.560181H1296.6V2.66956H1278.56V13.3483H1295.47V15.4576H1278.56V27.3229H1297.31V29.4323ZM1353.21 29.4323H1351.1V0.560181H1353.21V29.4323ZM1395.19 29.4323H1392.42L1374.81 3.06506V29.4323H1372.7V0.560181H1375.6L1393.08 26.8746V0.560181H1395.19V29.4323ZM1463.62 29.4323H1461.51V5.96545C1460.61 6.54553 1459.58 7.02893 1458.4 7.41565C1457.22 7.80237 1455.89 8.01331 1454.39 8.04846V5.93909C1456.55 5.8512 1458.28 5.35901 1459.56 4.46252C1460.86 3.56604 1461.71 2.26526 1462.12 0.560181H1463.62V29.4323ZM1504.78 13.6647C1504.78 11.7662 1504.6 10.1051 1504.23 8.68127C1503.88 7.23987 1503.38 6.03577 1502.75 5.06897C1502.12 4.10217 1501.36 3.37268 1500.48 2.88049C1499.62 2.38831 1498.68 2.14221 1497.66 2.14221C1496.66 2.14221 1495.75 2.36194 1494.95 2.80139C1494.15 3.24084 1493.48 3.81213 1492.92 4.51526C1492.37 5.21838 1491.95 6.02698 1491.65 6.94104C1491.35 7.83752 1491.2 8.7428 1491.2 9.65686C1491.2 10.6237 1491.34 11.5377 1491.62 12.399C1491.92 13.2604 1492.34 14.0162 1492.89 14.6666C1493.45 15.317 1494.14 15.8356 1494.95 16.2223C1495.77 16.5914 1496.7 16.776 1497.74 16.776C1498.3 16.776 1498.89 16.7057 1499.51 16.5651C1500.12 16.4069 1500.74 16.1959 1501.35 15.9323C1501.97 15.651 1502.57 15.317 1503.15 14.9303C1503.73 14.5436 1504.27 14.1217 1504.78 13.6647ZM1506.97 14.1656C1506.97 19.4215 1506.18 23.3678 1504.6 26.0045C1503.03 28.6412 1500.58 29.9596 1497.24 29.9596C1495.22 29.9596 1493.54 29.4147 1492.2 28.3248C1490.87 27.2174 1490.02 25.653 1489.67 23.6315H1491.83C1491.94 24.4049 1492.14 25.0641 1492.44 25.609C1492.76 26.1364 1493.15 26.567 1493.63 26.901C1494.12 27.235 1494.69 27.4811 1495.34 27.6393C1495.99 27.7799 1496.7 27.8502 1497.48 27.8502C1498.48 27.8502 1499.4 27.6041 1500.25 27.1119C1501.09 26.6198 1501.84 25.8903 1502.49 24.9235C1503.14 23.9567 1503.66 22.7526 1504.07 21.3112C1504.49 19.8522 1504.75 18.1735 1504.86 16.275C1504.42 16.609 1503.95 16.9342 1503.44 17.2506C1502.93 17.5494 1502.36 17.8219 1501.75 18.068C1501.15 18.3141 1500.49 18.5162 1499.77 18.6744C1499.05 18.8151 1498.25 18.8854 1497.37 18.8854C1496.14 18.8854 1495.02 18.6481 1494 18.1735C1492.98 17.6989 1492.11 17.0573 1491.39 16.2487C1490.67 15.4225 1490.1 14.4645 1489.7 13.3746C1489.29 12.2848 1489.09 11.1246 1489.09 9.89417C1489.09 8.59338 1489.28 7.35413 1489.65 6.17639C1490.03 4.98108 1490.59 3.92639 1491.31 3.01233C1492.03 2.09827 1492.92 1.37756 1493.97 0.85022C1495.04 0.305298 1496.26 0.0328369 1497.61 0.0328369C1499.12 0.0328369 1500.46 0.349243 1501.62 0.982056C1502.78 1.59729 1503.75 2.51135 1504.54 3.72424C1505.33 4.91956 1505.93 6.39612 1506.34 8.15393C1506.76 9.91174 1506.97 11.9156 1506.97 14.1656ZM1543.81 13.6647C1543.81 11.7662 1543.62 10.1051 1543.25 8.68127C1542.9 7.23987 1542.41 6.03577 1541.78 5.06897C1541.14 4.10217 1540.39 3.37268 1539.51 2.88049C1538.65 2.38831 1537.71 2.14221 1536.69 2.14221C1535.69 2.14221 1534.78 2.36194 1533.97 2.80139C1533.18 3.24084 1532.5 3.81213 1531.94 4.51526C1531.4 5.21838 1530.97 6.02698 1530.68 6.94104C1530.38 7.83752 1530.23 8.7428 1530.23 9.65686C1530.23 10.6237 1530.37 11.5377 1530.65 12.399C1530.95 13.2604 1531.37 14.0162 1531.91 14.6666C1532.48 15.317 1533.16 15.8356 1533.97 16.2223C1534.8 16.5914 1535.73 16.776 1536.77 16.776C1537.33 16.776 1537.92 16.7057 1538.53 16.5651C1539.15 16.4069 1539.76 16.1959 1540.38 15.9323C1540.99 15.651 1541.59 15.317 1542.17 14.9303C1542.75 14.5436 1543.3 14.1217 1543.81 13.6647ZM1545.99 14.1656C1545.99 19.4215 1545.2 23.3678 1543.62 26.0045C1542.06 28.6412 1539.61 29.9596 1536.27 29.9596C1534.24 29.9596 1532.57 29.4147 1531.23 28.3248C1529.89 27.2174 1529.05 25.653 1528.7 23.6315H1530.86C1530.97 24.4049 1531.17 25.0641 1531.47 25.609C1531.78 26.1364 1532.18 26.567 1532.65 26.901C1533.15 27.235 1533.72 27.4811 1534.37 27.6393C1535.02 27.7799 1535.73 27.8502 1536.5 27.8502C1537.5 27.8502 1538.43 27.6041 1539.27 27.1119C1540.12 26.6198 1540.86 25.8903 1541.51 24.9235C1542.16 23.9567 1542.69 22.7526 1543.09 21.3112C1543.52 19.8522 1543.78 18.1735 1543.89 16.275C1543.45 16.609 1542.97 16.9342 1542.46 17.2506C1541.95 17.5494 1541.39 17.8219 1540.77 18.068C1540.18 18.3141 1539.52 18.5162 1538.8 18.6744C1538.08 18.8151 1537.28 18.8854 1536.4 18.8854C1535.17 18.8854 1534.04 18.6481 1533.02 18.1735C1532 17.6989 1531.13 17.0573 1530.41 16.2487C1529.69 15.4225 1529.13 14.4645 1528.72 13.3746C1528.32 12.2848 1528.12 11.1246 1528.12 9.89417C1528.12 8.59338 1528.3 7.35413 1528.67 6.17639C1529.06 4.98108 1529.61 3.92639 1530.33 3.01233C1531.05 2.09827 1531.94 1.37756 1533 0.85022C1534.07 0.305298 1535.28 0.0328369 1536.63 0.0328369C1538.15 0.0328369 1539.48 0.349243 1540.64 0.982056C1541.8 1.59729 1542.78 2.51135 1543.57 3.72424C1544.36 4.91956 1544.96 6.39612 1545.36 8.15393C1545.78 9.91174 1545.99 11.9156 1545.99 14.1656ZM1585.18 2.56409L1574.53 29.4323H1572.15L1582.78 2.72229H1566.99V0.560181H1585.18V2.56409Z" fill="#111111"/>
<path d="M1201.12 306.383C1201.12 325.749 1191.49 335.432 1172.23 335.432H1154.93V278.275H1172.23C1181.87 278.275 1189.1 280.609 1193.91 285.276C1198.71 289.908 1201.12 296.944 1201.12 306.383ZM1196.68 306.383C1196.68 302.622 1196.29 299.261 1195.53 296.3C1194.8 293.339 1193.49 290.832 1191.61 288.776C1189.73 286.687 1187.2 285.102 1184.03 284.022C1180.9 282.942 1176.93 282.402 1172.12 282.402H1159.11V331.253H1172.12C1176.89 331.253 1180.85 330.695 1183.98 329.581C1187.15 328.466 1189.68 326.846 1191.56 324.722C1193.44 322.562 1194.76 319.95 1195.53 316.885C1196.29 313.82 1196.68 310.319 1196.68 306.383ZM1281.2 335.432H1239.87V278.223H1279.79V282.402H1244.05V303.562H1277.54V307.742H1244.05V331.253H1281.2V335.432ZM1341.27 336.477C1337.4 336.477 1334.02 336.077 1331.13 335.276C1328.24 334.44 1325.8 333.273 1323.82 331.775C1321.87 330.242 1320.37 328.414 1319.33 326.289C1318.28 324.13 1317.67 321.709 1317.5 319.027H1321.62C1322.04 321.604 1322.83 323.747 1323.98 325.453C1325.12 327.16 1326.54 328.518 1328.21 329.528C1329.91 330.539 1331.85 331.253 1334.01 331.671C1336.17 332.089 1338.46 332.297 1340.9 332.297C1343.45 332.297 1345.73 332.036 1347.75 331.514C1349.8 330.957 1351.54 330.173 1352.97 329.163C1354.43 328.118 1355.55 326.881 1356.32 325.453C1357.08 323.99 1357.46 322.353 1357.46 320.542C1357.46 318.626 1357.13 317.024 1356.47 315.735C1355.81 314.412 1354.7 313.262 1353.13 312.287C1351.56 311.312 1349.49 310.441 1346.91 309.675C1344.37 308.909 1341.2 308.125 1337.4 307.324C1334.27 306.627 1331.57 305.826 1329.3 304.921C1327.08 304.015 1325.23 302.97 1323.77 301.786C1322.3 300.567 1321.22 299.191 1320.53 297.658C1319.83 296.091 1319.48 294.28 1319.48 292.225C1319.48 289.996 1319.95 287.958 1320.89 286.112C1321.83 284.266 1323.16 282.681 1324.86 281.358C1326.6 280.034 1328.68 279.006 1331.08 278.275C1333.52 277.544 1336.2 277.178 1339.13 277.178C1342.05 277.178 1344.73 277.526 1347.17 278.223C1349.61 278.885 1351.74 279.86 1353.55 281.149C1355.39 282.437 1356.87 284.005 1357.99 285.851C1359.14 287.697 1359.87 289.787 1360.18 292.12H1356.16C1355.78 290.588 1355.15 289.16 1354.28 287.836C1353.41 286.512 1352.28 285.38 1350.88 284.44C1349.52 283.465 1347.89 282.716 1345.97 282.193C1344.09 281.636 1341.93 281.358 1339.49 281.358C1334.37 281.358 1330.49 282.298 1327.84 284.179C1325.23 286.06 1323.92 288.637 1323.92 291.911C1323.92 293.409 1324.17 294.715 1324.65 295.83C1325.14 296.944 1325.96 297.954 1327.11 298.86C1328.29 299.731 1329.84 300.514 1331.76 301.211C1333.68 301.873 1336.06 302.5 1338.92 303.092C1340.59 303.44 1342.31 303.806 1344.09 304.189C1345.87 304.572 1347.59 305.025 1349.26 305.547C1350.97 306.07 1352.59 306.714 1354.12 307.481C1355.65 308.247 1356.98 309.187 1358.09 310.302C1359.24 311.416 1360.15 312.757 1360.81 314.325C1361.51 315.857 1361.85 317.686 1361.85 319.811C1361.85 322.249 1361.33 324.495 1360.29 326.55C1359.28 328.571 1357.85 330.33 1356 331.827C1354.19 333.29 1352.01 334.44 1349.47 335.276C1346.96 336.077 1344.23 336.477 1341.27 336.477ZM1406.67 335.432H1402.49V278.223H1406.67V335.432ZM1474 336.477C1469.93 336.477 1466.2 335.763 1462.82 334.335C1459.48 332.907 1456.6 330.904 1454.2 328.327C1451.8 325.714 1449.93 322.58 1448.61 318.922C1447.32 315.23 1446.68 311.138 1446.68 306.645C1446.68 302.117 1447.34 298.041 1448.66 294.419C1449.99 290.797 1451.83 287.714 1454.2 285.172C1456.6 282.594 1459.46 280.626 1462.77 279.268C1466.08 277.874 1469.73 277.178 1473.74 277.178C1476.87 277.178 1479.8 277.578 1482.52 278.38C1485.23 279.146 1487.65 280.26 1489.78 281.723C1491.9 283.151 1493.66 284.875 1495.06 286.896C1496.45 288.916 1497.41 291.162 1497.93 293.635H1493.44C1493.16 291.964 1492.48 290.396 1491.4 288.933C1490.35 287.436 1488.98 286.129 1487.27 285.015C1485.56 283.9 1483.58 283.012 1481.32 282.35C1479.05 281.688 1476.56 281.358 1473.84 281.358C1470.5 281.358 1467.44 281.897 1464.65 282.977C1461.86 284.057 1459.46 285.677 1457.44 287.836C1455.45 289.961 1453.9 292.608 1452.79 295.777C1451.67 298.912 1451.12 302.535 1451.12 306.645C1451.12 310.72 1451.67 314.36 1452.79 317.564C1453.9 320.734 1455.45 323.416 1457.44 325.61C1459.46 327.804 1461.86 329.476 1464.65 330.626C1467.47 331.74 1470.57 332.297 1473.95 332.297C1478.69 332.297 1482.8 331.392 1486.28 329.581C1489.76 327.769 1492.7 325.262 1495.11 322.057V311.765H1479.33V307.585H1499.29V335.432H1496.88L1495.06 327.804C1493.73 329.407 1492.27 330.765 1490.67 331.88C1489.07 332.959 1487.36 333.847 1485.55 334.544C1483.77 335.206 1481.91 335.693 1479.96 336.007C1478.01 336.32 1476.02 336.477 1474 336.477ZM1583.03 335.432H1577.54L1542.64 283.186V335.432H1538.46V278.223H1544.21L1578.85 330.364V278.223H1583.03V335.432Z" fill="#111111"/>
</svg>
