<svg width="254" height="273" viewBox="0 0 254 273" fill="none" xmlns="http://www.w3.org/2000/svg">
<rect width="254" height="273" rx="5" fill="#E9EFF2"/>
<path opacity="0.2" d="M66.5537 127.111C67.5609 127.111 68.3965 126.818 69.0605 126.231C69.7246 125.645 70.0788 124.92 70.123 124.057H73.9248C73.8805 125.174 73.5319 126.22 72.8789 127.194C72.2259 128.157 71.3405 128.921 70.2227 129.485C69.1048 130.05 67.8984 130.332 66.6035 130.332C64.0911 130.332 62.099 129.519 60.627 127.892C59.1549 126.265 58.4189 124.018 58.4189 121.151V120.736C58.4189 118.003 59.1494 115.817 60.6104 114.179C62.0713 112.53 64.0635 111.705 66.5869 111.705C68.723 111.705 70.4606 112.33 71.7998 113.581C73.1501 114.821 73.8584 116.453 73.9248 118.479H70.123C70.0788 117.449 69.7246 116.603 69.0605 115.938C68.4076 115.274 67.5719 114.942 66.5537 114.942C65.2477 114.942 64.2406 115.418 63.5322 116.37C62.8239 117.311 62.4642 118.744 62.4531 120.67V121.317C62.4531 123.265 62.8018 124.721 63.499 125.684C64.2074 126.635 65.2256 127.111 66.5537 127.111ZM76.2158 120.853C76.2158 119.093 76.5645 117.51 77.2617 116.104C77.959 114.688 78.9385 113.603 80.2002 112.851C81.4619 112.087 82.9118 111.705 84.5498 111.705C86.9736 111.705 88.9382 112.485 90.4434 114.046C91.9596 115.606 92.7786 117.676 92.9004 120.255L92.917 121.201C92.917 122.972 92.5739 124.555 91.8877 125.949C91.2126 127.344 90.2386 128.423 88.9658 129.187C87.7041 129.95 86.2432 130.332 84.583 130.332C82.0485 130.332 80.0176 129.491 78.4902 127.809C76.974 126.115 76.2158 123.863 76.2158 121.052V120.853ZM80.25 121.201C80.25 123.049 80.6318 124.499 81.3955 125.551C82.1592 126.591 83.2217 127.111 84.583 127.111C85.9443 127.111 87.0013 126.58 87.7539 125.518C88.5176 124.455 88.8994 122.9 88.8994 120.853C88.8994 119.037 88.5065 117.599 87.7207 116.536C86.946 115.474 85.889 114.942 84.5498 114.942C83.2327 114.942 82.1868 115.468 81.4121 116.52C80.6374 117.56 80.25 119.12 80.25 121.201ZM100.122 112.037L100.238 113.913C101.5 112.441 103.227 111.705 105.418 111.705C107.82 111.705 109.463 112.624 110.349 114.461C111.655 112.624 113.492 111.705 115.86 111.705C117.841 111.705 119.313 112.253 120.276 113.349C121.25 114.444 121.748 116.06 121.771 118.196V130H117.736V118.312C117.736 117.173 117.487 116.337 116.989 115.806C116.491 115.274 115.667 115.009 114.516 115.009C113.597 115.009 112.844 115.258 112.258 115.756C111.682 116.243 111.278 116.885 111.046 117.682L111.062 130H107.028V118.18C106.973 116.066 105.894 115.009 103.791 115.009C102.175 115.009 101.03 115.667 100.354 116.984V130H96.3203V112.037H100.122ZM141.643 121.201C141.643 123.979 141.012 126.198 139.75 127.858C138.488 129.507 136.795 130.332 134.67 130.332C132.7 130.332 131.123 129.685 129.938 128.39V136.906H125.904V112.037H129.623L129.789 113.863C130.973 112.424 132.584 111.705 134.62 111.705C136.812 111.705 138.527 112.524 139.767 114.162C141.017 115.789 141.643 118.052 141.643 120.952V121.201ZM137.625 120.853C137.625 119.06 137.265 117.637 136.546 116.586C135.838 115.535 134.819 115.009 133.491 115.009C131.842 115.009 130.658 115.689 129.938 117.051V125.02C130.669 126.414 131.864 127.111 133.524 127.111C134.808 127.111 135.81 126.597 136.529 125.567C137.26 124.527 137.625 122.955 137.625 120.853ZM155.804 130C155.627 129.657 155.472 129.098 155.339 128.323C154.055 129.662 152.483 130.332 150.624 130.332C148.82 130.332 147.348 129.817 146.208 128.788C145.068 127.759 144.498 126.486 144.498 124.97C144.498 123.055 145.206 121.589 146.623 120.57C148.051 119.541 150.087 119.026 152.732 119.026H155.206V117.848C155.206 116.918 154.946 116.176 154.426 115.623C153.906 115.059 153.114 114.776 152.052 114.776C151.133 114.776 150.381 115.009 149.794 115.474C149.207 115.927 148.914 116.508 148.914 117.217H144.88C144.88 116.232 145.206 115.313 145.859 114.461C146.512 113.598 147.398 112.923 148.516 112.436C149.645 111.949 150.901 111.705 152.284 111.705C154.387 111.705 156.064 112.236 157.314 113.299C158.565 114.35 159.207 115.833 159.24 117.748V125.85C159.24 127.465 159.467 128.755 159.921 129.718V130H155.804ZM151.371 127.095C152.168 127.095 152.915 126.901 153.612 126.514C154.321 126.126 154.852 125.606 155.206 124.953V121.566H153.031C151.537 121.566 150.414 121.826 149.661 122.347C148.909 122.867 148.532 123.603 148.532 124.555C148.532 125.329 148.787 125.949 149.296 126.414C149.816 126.868 150.508 127.095 151.371 127.095ZM167.209 112.037L167.325 114.112C168.653 112.507 170.396 111.705 172.555 111.705C176.296 111.705 178.199 113.847 178.266 118.13V130H174.231V118.362C174.231 117.222 173.982 116.381 173.484 115.839C172.997 115.285 172.195 115.009 171.077 115.009C169.45 115.009 168.238 115.745 167.441 117.217V130H163.407V112.037H167.209ZM188.675 124.223L192.327 112.037H196.627L189.488 132.723C188.393 135.744 186.533 137.255 183.91 137.255C183.324 137.255 182.676 137.155 181.968 136.956V133.835L182.731 133.885C183.75 133.885 184.513 133.697 185.022 133.32C185.543 132.955 185.952 132.335 186.251 131.461L186.832 129.917L180.523 112.037H184.873L188.675 124.223ZM100.006 171H95.9717V145.5H100.006V171ZM103.658 161.853C103.658 160.093 104.007 158.51 104.704 157.104C105.401 155.688 106.381 154.603 107.643 153.851C108.904 153.087 110.354 152.705 111.992 152.705C114.416 152.705 116.381 153.485 117.886 155.046C119.402 156.606 120.221 158.676 120.343 161.255L120.359 162.201C120.359 163.972 120.016 165.555 119.33 166.949C118.655 168.344 117.681 169.423 116.408 170.187C115.146 170.95 113.686 171.332 112.025 171.332C109.491 171.332 107.46 170.491 105.933 168.809C104.416 167.115 103.658 164.863 103.658 162.052V161.853ZM107.692 162.201C107.692 164.049 108.074 165.499 108.838 166.551C109.602 167.591 110.664 168.111 112.025 168.111C113.387 168.111 114.444 167.58 115.196 166.518C115.96 165.455 116.342 163.9 116.342 161.853C116.342 160.037 115.949 158.599 115.163 157.536C114.388 156.474 113.331 155.942 111.992 155.942C110.675 155.942 109.629 156.468 108.854 157.52C108.08 158.56 107.692 160.12 107.692 162.201ZM123.065 161.886C123.065 159.097 123.718 156.872 125.024 155.212C126.341 153.541 128.085 152.705 130.254 152.705C132.301 152.705 133.912 153.419 135.085 154.847L135.268 153.037H138.903V170.452C138.903 172.81 138.167 174.669 136.695 176.03C135.234 177.392 133.259 178.072 130.769 178.072C129.451 178.072 128.162 177.796 126.9 177.242C125.65 176.7 124.698 175.986 124.045 175.101L125.954 172.677C127.194 174.149 128.721 174.885 130.536 174.885C131.875 174.885 132.932 174.52 133.707 173.789C134.482 173.07 134.869 172.007 134.869 170.602V169.39C133.707 170.685 132.158 171.332 130.221 171.332C128.118 171.332 126.397 170.496 125.058 168.825C123.729 167.154 123.065 164.841 123.065 161.886ZM127.083 162.234C127.083 164.038 127.448 165.461 128.179 166.501C128.92 167.53 129.944 168.045 131.25 168.045C132.877 168.045 134.083 167.348 134.869 165.953V158.051C134.105 156.689 132.91 156.009 131.283 156.009C129.955 156.009 128.92 156.535 128.179 157.586C127.448 158.637 127.083 160.187 127.083 162.234ZM142.307 161.853C142.307 160.093 142.655 158.51 143.353 157.104C144.05 155.688 145.029 154.603 146.291 153.851C147.553 153.087 149.003 152.705 150.641 152.705C153.064 152.705 155.029 153.485 156.534 155.046C158.05 156.606 158.869 158.676 158.991 161.255L159.008 162.201C159.008 163.972 158.665 165.555 157.979 166.949C157.303 168.344 156.329 169.423 155.057 170.187C153.795 170.95 152.334 171.332 150.674 171.332C148.139 171.332 146.108 170.491 144.581 168.809C143.065 167.115 142.307 164.863 142.307 162.052V161.853ZM146.341 162.201C146.341 164.049 146.723 165.499 147.486 166.551C148.25 167.591 149.312 168.111 150.674 168.111C152.035 168.111 153.092 167.58 153.845 166.518C154.608 165.455 154.99 163.9 154.99 161.853C154.99 160.037 154.597 158.599 153.812 157.536C153.037 156.474 151.98 155.942 150.641 155.942C149.324 155.942 148.278 156.468 147.503 157.52C146.728 158.56 146.341 160.12 146.341 162.201Z" fill="black"/>
</svg>
