<svg width="96" height="96" viewBox="0 0 96 96" fill="none" xmlns="http://www.w3.org/2000/svg">
<circle cx="48" cy="48" r="48" fill="#E9EFF2"/>
<path fill-rule="evenodd" clip-rule="evenodd" d="M48.0009 46.6124C53.3706 46.6124 57.7231 42.2596 57.7231 36.8902C57.7231 31.5208 53.3706 27.168 48.0009 27.168C42.6311 27.168 38.2787 31.5208 38.2787 36.8902C38.2787 42.2596 42.6311 46.6124 48.0009 46.6124ZM48.0077 49.3952C54.5574 49.3952 60.8183 52.0907 65.3199 56.8485C65.7987 57.3664 66.0619 58.0466 66.0564 58.7513V66.0569C66.0564 67.591 64.8127 68.8346 63.2786 68.8346H32.7231C31.1891 68.8346 29.9453 67.591 29.9453 66.0569V58.7513C29.944 58.0447 30.2125 57.3643 30.6954 56.8485C35.1971 52.0907 41.4579 49.3952 48.0077 49.3952ZM32.7231 58.7374V66.0569H63.2786V58.7374C59.3005 54.5487 53.7775 52.177 48.0009 52.177C42.2242 52.177 36.7012 54.5487 32.7231 58.7374ZM54.9453 36.8902C54.9453 33.0549 51.8366 29.9457 48.0009 29.9457C44.1652 29.9457 41.0564 33.0549 41.0564 36.8902C41.0564 40.7255 44.1652 43.8346 48.0009 43.8346C51.8366 43.8346 54.9453 40.7255 54.9453 36.8902Z" fill="#4D4D4D"/>
</svg>
